<svg xmlns="http://www.w3.org/2000/svg" width="256" height="256" viewBox="0 0 100 100"><path fill="#7a9bff" d="M32.16 69.60L20.56 56.08L20.56 74.16Q19.68 74.40 17.84 74.64Q16.00 74.88 14.08 74.88L14.08 74.88Q9.84 74.88 8.20 73.44Q6.56 72.00 6.56 68.24L6.56 68.24L6.56 25.60Q7.52 25.44 9.36 25.16Q11.20 24.88 13.04 24.88L13.04 24.88Q17.04 24.88 18.80 26.24Q20.56 27.60 20.56 31.52L20.56 31.52L20.56 44.48L37.20 25.28Q42.64 25.28 45.00 27.32Q47.36 29.36 47.36 32.16L47.36 32.16Q47.36 34.24 46.32 36.08Q45.28 37.92 42.96 40.24L42.96 40.24L32.96 50.24Q38.16 56.00 42.40 60.48Q46.64 64.96 49.20 67.76L49.20 67.76Q49.20 69.52 48.56 70.88Q47.92 72.24 46.84 73.20Q45.76 74.16 44.40 74.64Q43.04 75.12 41.52 75.12L41.52 75.12Q38.24 75.12 36.16 73.48Q34.08 71.84 32.16 69.60L32.16 69.60ZM92 25.76L92 25.76Q92.56 26.64 93 28.08Q93.44 29.52 93.44 31.20L93.44 31.20Q93.44 34.24 92.12 35.60Q90.80 36.96 88.56 36.96L88.56 36.96L79.52 36.96L79.52 74.16Q78.64 74.40 76.80 74.64Q74.96 74.88 73.04 74.88L73.04 74.88Q68.80 74.88 67.16 73.44Q65.52 72.00 65.52 68.24L65.52 68.24L65.52 36.96L53.44 36.96Q52.88 36.08 52.44 34.64Q52.00 33.20 52.00 31.52L52.00 31.52Q52.00 28.48 53.32 27.12Q54.64 25.76 56.88 25.76L56.88 25.76L92 25.76Z"></path></svg>